<?xml version="1.0" encoding="UTF-8" standalone="no"?>
<svg
   xmlns:dc="http://purl.org/dc/elements/1.1/"
   xmlns:cc="http://creativecommons.org/ns#"
   xmlns:rdf="http://www.w3.org/1999/02/22-rdf-syntax-ns#"
   xmlns:svg="http://www.w3.org/2000/svg"
   xmlns="http://www.w3.org/2000/svg"
   viewBox="0 0 477.33334 186.66667"
   height="186.66667"
   width="477.33334"
   xml:space="preserve"
   id="svg2"
   version="1.1"><metadata
     id="metadata8"><rdf:RDF><cc:Work
         rdf:about=""><dc:format>image/svg+xml</dc:format><dc:type
           rdf:resource="http://purl.org/dc/dcmitype/StillImage" /></cc:Work></rdf:RDF></metadata><defs
     id="defs6"><clipPath
       id="clipPath34"
       clipPathUnits="userSpaceOnUse"><path
         id="path32"
         d="M 0,140 H 358 V 0 H 0 Z" /></clipPath></defs><g
     transform="matrix(1.3333333,0,0,-1.3333333,0,186.66667)"
     id="g10"><g
       transform="translate(300.8535,128.6709)"
       id="g12"><path
         id="path14"
         style="fill:none;stroke:#56a24d;stroke-width:3.02999997;stroke-linecap:butt;stroke-linejoin:miter;stroke-miterlimit:10;stroke-dasharray:none;stroke-opacity:1"
         d="M 0,0 40.46,-75.419" /></g><g
       transform="translate(261.1973,53.543)"
       id="g16"><path
         id="path18"
         style="fill:none;stroke:#2098b1;stroke-width:3.02999997;stroke-linecap:butt;stroke-linejoin:miter;stroke-miterlimit:10;stroke-dasharray:none;stroke-opacity:1"
         d="M 0,0 39.656,75.128" /></g><g
       transform="translate(303.0332,53.5015)"
       id="g20"><path
         id="path22"
         style="fill:none;stroke:#56a24d;stroke-width:3.02999997;stroke-linecap:butt;stroke-linejoin:miter;stroke-miterlimit:10;stroke-dasharray:none;stroke-opacity:1"
         d="M 0,0 16.431,40.828" /></g><g
       transform="translate(282.4639,94.0386)"
       id="g24"><path
         id="path26"
         style="fill:none;stroke:#2098b1;stroke-width:3.02999997;stroke-linecap:butt;stroke-linejoin:miter;stroke-miterlimit:10;stroke-dasharray:none;stroke-opacity:1"
         d="M 0,0 20.569,-40.537" /></g><g
       id="g28"><g
         clip-path="url(#clipPath34)"
         id="g30"><g
           transform="translate(24.4697,111.4766)"
           id="g36"><path
             id="path38"
             style="fill:#656263;fill-opacity:1;fill-rule:nonzero;stroke:none"
             d="m 0,0 c -0.364,-0.301 -0.364,-0.908 -0.122,-1.272 l 15.215,-19.579 c 0.304,-0.363 0.906,-0.668 1.394,-0.668 h 0.301 c 0.487,0 0.85,-0.423 0.85,-0.848 v -1.334 c 0,-0.484 -0.363,-0.848 -0.85,-0.848 h -6.181 c -0.424,0 -0.849,0.364 -0.849,0.848 v 1.334 c 0,0.425 0.425,0.848 0.849,0.848 h 0.302 c 0.485,0 0.666,0.305 0.365,0.668 L -2.302,-3.333 c -0.308,0.364 -0.79,0.364 -1.156,0.061 l -6.24,-5.94 c -0.365,-0.306 -0.608,-0.97 -0.608,-1.456 V -20.67 c 0,-0.485 0.366,-0.849 0.85,-0.849 h 0.666 c 0.482,0 0.908,-0.423 0.908,-0.848 v -1.334 c 0,-0.484 -0.426,-0.848 -0.908,-0.848 h -6.123 c -0.484,0 -0.85,0.364 -0.85,0.848 v 1.334 c 0,0.425 0.366,0.848 0.85,0.848 h 0.668 c 0.483,0 0.909,0.364 0.909,0.849 v 34.853 c 0,0.488 -0.426,0.85 -0.909,0.85 h -0.668 c -0.484,0 -0.85,0.425 -0.85,0.908 v 1.274 c 0,0.484 0.366,0.849 0.85,0.849 h 6.123 c 0.482,0 0.908,-0.365 0.908,-0.849 v -1.274 c 0,-0.483 -0.426,-0.908 -0.908,-0.908 h -0.666 c -0.484,0 -0.85,-0.362 -0.85,-0.85 V -4.726 c 0,-0.485 0.243,-0.606 0.608,-0.305 l 20.549,19.519 c 0.363,0.303 0.241,0.545 -0.244,0.545 -0.424,0 -0.849,0.425 -0.849,0.908 v 1.274 c 0,0.484 0.425,0.849 0.849,0.849 h 6.181 c 0.487,0 0.85,-0.365 0.85,-0.849 v -1.274 c 0,-0.483 -0.363,-0.908 -0.85,-0.908 h -0.06 c -0.42,0 -1.088,-0.242 -1.453,-0.545 z" /></g><g
           transform="translate(71.5664,107.2974)"
           id="g40"><path
             id="path42"
             style="fill:#656263;fill-opacity:1;fill-rule:nonzero;stroke:none"
             d="m 0,0 c 0.484,0 0.79,0.363 0.668,0.787 l -5.152,17.64 c -0.122,0.424 -0.546,0.789 -0.848,0.789 -0.303,0 -0.726,-0.365 -0.85,-0.789 L -11.334,0.787 C -11.457,0.363 -11.154,0 -10.666,0 Z m 10.428,-16.974 c 0.483,0 0.847,-0.364 0.847,-0.848 v -1.334 c 0,-0.484 -0.364,-0.848 -0.847,-0.848 H 4.244 c -0.425,0 -0.849,0.364 -0.849,0.848 v 1.334 c 0,0.484 0.424,0.848 0.849,0.848 h 0.729 c 0.484,0 0.726,0.364 0.605,0.849 L 2,-3.879 c -0.121,0.484 -0.605,0.848 -1.09,0.848 h -12.488 c -0.484,0 -0.971,-0.485 -1.151,-0.91 l -3.517,-12.184 c -0.119,-0.485 0.122,-0.849 0.608,-0.849 h 0.726 c 0.425,0 0.851,-0.364 0.851,-0.848 v -1.334 c 0,-0.484 -0.426,-0.848 -0.851,-0.848 h -6.184 c -0.482,0 -0.847,0.364 -0.847,0.848 v 1.334 c 0,0.484 0.365,0.848 0.847,0.848 h 0.727 c 0.488,0 0.973,0.364 1.094,0.849 l 11.033,37.583 c 0.12,0.425 0.604,0.786 1.09,0.786 h 3.636 c 0.486,0 0.971,-0.361 1.154,-0.786 L 8.607,-16.125 c 0.122,-0.485 0.666,-0.849 1.092,-0.849 z" /></g><g
           transform="translate(119.9229,128.6924)"
           id="g44"><path
             id="path46"
             style="fill:#656263;fill-opacity:1;fill-rule:nonzero;stroke:none"
             d="m 0,0 v -3.758 c 0,-0.424 -0.364,-0.848 -0.847,-0.848 h -1.338 c -0.421,0 -0.847,0.424 -0.847,0.848 v 0.727 c 0,0.489 -0.363,0.85 -0.848,0.85 h -12 c -0.305,-0.121 -0.488,-0.426 -0.488,-0.789 v -34.49 c 0,-0.485 0.366,-0.849 0.851,-0.849 h 0.727 c 0.484,0 0.85,-0.364 0.85,-0.848 v -1.334 c 0,-0.484 -0.366,-0.848 -0.85,-0.848 h -6.184 c -0.423,0 -0.848,0.364 -0.848,0.848 v 1.334 c 0,0.484 0.425,0.848 0.848,0.848 h 0.727 c 0.487,0 0.85,0.364 0.85,0.849 v 34.49 c 0,0.363 -0.183,0.668 -0.485,0.789 h -12.004 c -0.485,0 -0.847,-0.361 -0.847,-0.85 v -0.727 c 0,-0.424 -0.366,-0.848 -0.848,-0.848 h -1.334 c -0.486,0 -0.85,0.424 -0.85,0.848 V 0 c 0,0.487 0.364,0.849 0.85,0.849 H -0.847 C -0.364,0.849 0,0.487 0,0" /></g><g
           transform="translate(134.9834,88.1411)"
           id="g48"><path
             id="path50"
             style="fill:#656263;fill-opacity:1;fill-rule:nonzero;stroke:none"
             d="m 0,0 c 0,-0.483 -0.362,-0.848 -0.851,-0.848 h -0.726 -1.697 -1.334 -1.696 -0.667 c -0.483,0 -0.907,0.365 -0.907,0.848 v 1.273 c 0,0.486 0.424,0.91 0.907,0.91 h 0.667 c 0.485,0 0.848,0.363 0.848,0.848 v 34.49 c 0,0.486 -0.363,0.852 -0.848,0.852 h -0.667 c -0.483,0 -0.907,0.361 -0.907,0.847 v 1.332 c 0,0.488 0.424,0.848 0.907,0.848 h 6.12 C -0.362,41.4 0,41.04 0,40.552 V 39.22 c 0,-0.486 -0.362,-0.847 -0.851,-0.847 h -0.726 c -0.425,0 -0.848,-0.366 -0.848,-0.852 V 3.031 c 0,-0.485 0.423,-0.848 0.848,-0.848 h 0.726 C -0.362,2.183 0,1.759 0,1.273 Z" /></g><g
           transform="translate(174.8828,129.541)"
           id="g52"><path
             id="path54"
             style="fill:#656263;fill-opacity:1;fill-rule:nonzero;stroke:none"
             d="m 0,0 c 0.487,0 0.85,-0.36 0.85,-0.848 v -1.273 -1.757 -0.665 c 0,-0.486 -0.363,-0.85 -0.85,-0.85 h -1.333 c -0.426,0 -0.85,0.364 -0.85,0.85 v 0.665 c 0,0.485 -0.362,0.851 -0.849,0.851 l -20.73,-0.063 c -0.484,0 -0.845,-0.361 -0.845,-0.849 V -18.79 c 0,-0.484 0.361,-0.907 0.845,-0.907 h 15.457 c 0.487,0 0.91,0.423 0.91,0.907 v 0.667 c 0,0.486 0.365,0.849 0.849,0.849 h 1.272 c 0.486,0 0.91,-0.363 0.91,-0.849 v -0.667 -1.756 -1.274 -1.758 -0.669 c 0,-0.482 -0.424,-0.908 -0.91,-0.908 h -1.272 c -0.484,0 -0.849,0.426 -0.849,0.908 v 0.669 c 0,0.483 -0.423,0.848 -0.91,0.848 h -15.457 c -0.484,0 -0.845,-0.365 -0.845,-0.848 v -14.791 c 0,-0.485 0.361,-0.848 0.845,-0.848 h 20.73 c 0.487,0 0.849,0.363 0.849,0.848 v 0.726 c 0,0.488 0.424,0.851 0.85,0.851 H 0 c 0.487,0 0.85,-0.363 0.85,-0.851 v -0.726 -1.697 -1.334 c 0,-0.483 -0.363,-0.848 -0.85,-0.848 h -29.217 c -0.485,0 -0.848,0.365 -0.848,0.848 v 1.214 c 0,0.484 0.363,0.908 0.848,0.908 l 0.727,0.061 c 0.486,0 0.849,0.363 0.849,0.848 v 34.43 c 0,0.488 -0.363,0.849 -0.849,0.912 h -0.727 c -0.485,0 -0.848,0.422 -0.848,0.906 v 1.212 c 0,0.487 0.363,0.849 0.848,0.849 z" /></g><g
           transform="translate(240.4473,125.1353)"
           id="g56"><path
             id="path58"
             style="fill:#656263;fill-opacity:1;fill-rule:nonzero;stroke:none"
             d="m 0,0 v -34.449 c 0,-0.745 0.563,-1.303 1.243,-1.303 0.681,0 1.243,-0.622 1.243,-1.367 v -0.433 c 0,-0.745 -0.562,-1.303 -1.243,-1.303 h -2.606 -0.434 -2.548 c -0.682,0 -1.239,0.558 -1.239,1.303 v 0.433 c 0,0.745 0.557,1.367 1.239,1.367 0.685,0 1.243,0.558 1.243,1.303 v 31.285 c 0,0.741 -0.312,0.804 -0.623,0.185 l -16.137,-35.689 c -0.37,-0.684 -0.867,-0.684 -1.24,0 l -16.261,35.689 c -0.375,0.684 -0.619,0.619 -0.619,-0.127 v -31.343 c 0,-0.745 0.556,-1.303 1.238,-1.303 0.683,0 1.242,-0.622 1.242,-1.367 v -0.433 c 0,-0.745 -0.559,-1.303 -1.242,-1.303 h -2.606 -0.435 -2.544 c -0.685,0 -1.243,0.558 -1.243,1.303 v 0.433 c 0,0.745 0.558,1.367 1.243,1.367 0.684,0 1.241,0.558 1.241,1.303 V 0 c 0,0.742 -0.557,1.302 -1.241,1.302 -0.685,0 -1.243,0.623 -1.243,1.304 v 0.496 c 0,0.745 0.558,1.304 1.305,1.304 h 3.107 c 0.744,0 1.608,-0.063 1.608,-0.125 -0.059,-0.062 0,-0.062 0.066,-0.062 0,0.062 0.31,-0.495 0.679,-1.117 l 15.705,-33.828 c 0.309,-0.683 0.87,-0.683 1.24,0 L -4.28,3.102 c 0.307,0.622 0.62,1.179 0.62,1.179 L -3.6,4.219 c 0,0 0.062,0 0.062,0.062 0,0.062 0.809,0.125 1.554,0.125 h 3.103 c 0.744,0 1.367,-0.559 1.367,-1.304 V 2.606 C 2.486,1.925 1.924,1.302 1.243,1.302 0.563,1.302 0,0.742 0,0" /></g><g
           transform="translate(57.4814,75.5762)"
           id="g60"><path
             id="path62"
             style="fill:#656263;fill-opacity:1;fill-rule:nonzero;stroke:none"
             d="m 0,0 v -2.008 -2.773 -1.05 c 0,-0.765 -0.569,-1.34 -1.337,-1.34 h -2.104 c -0.668,0 -1.34,0.575 -1.34,1.34 v 1.05 c 0,0.765 -0.573,1.341 -1.336,1.341 h -31.562 -1.148 c -0.764,0 -1.341,-0.576 -1.341,-1.341 v -24.96 h 25.538 c 0.764,0 1.436,0.67 1.436,1.433 v 1.054 c 0,0.765 0.572,1.337 1.338,1.337 h 2.005 c 0.764,0 1.438,-0.572 1.438,-1.337 v -1.054 -2.774 -2.006 -2.773 -1.054 c 0,-0.764 -0.674,-1.434 -1.438,-1.434 h -2.005 c -0.766,0 -1.338,0.67 -1.338,1.434 v 1.054 c 0,0.763 -0.672,1.337 -1.436,1.337 h -25.538 v -24.674 c 0,-0.767 0.577,-1.338 1.341,-1.338 h 1.148 c 0.67,0 1.338,-0.576 1.338,-1.341 v -2.103 c 0,-0.763 -0.668,-1.339 -1.338,-1.339 h -1.148 -2.68 -2.1 -2.679 -1.149 c -0.763,0 -1.339,0.576 -1.339,1.339 v 2.103 c 0,0.765 0.576,1.341 1.339,1.341 h 1.149 c 0.764,0 1.336,0.571 1.336,1.338 v 54.417 c 0,0.765 -0.572,1.341 -1.336,1.341 h -1.149 c -0.763,0 -1.339,0.667 -1.339,1.432 V 0 c 0,0.479 0.191,0.861 0.576,1.148 0.094,0.097 0.285,0.097 0.381,0.192 h 0.287 0.095 9.756 31.562 2.676 2.104 C -0.569,1.34 0,0.767 0,0" /></g><g
           transform="translate(90.8877,42.0098)"
           id="g64"><path
             id="path66"
             style="fill:#656263;fill-opacity:1;fill-rule:nonzero;stroke:none"
             d="m 0,0 c 4.208,0 7.935,1.721 10.708,4.398 2.679,2.775 4.4,6.505 4.4,10.711 0,4.115 -1.721,7.94 -4.4,10.616 C 7.935,28.499 4.208,30.126 0,30.126 h -19.606 c -0.671,0 -1.149,-0.575 -1.149,-1.341 V 0.955 c 0.094,-0.476 0.381,-0.766 0.86,-0.955 z m 21.229,-28.311 v -2.103 c 0,-0.763 -0.575,-1.339 -1.337,-1.339 h -9.663 c -0.761,0 -1.335,0.576 -1.335,1.339 v 2.103 c 0,0.765 0.574,1.341 1.335,1.341 h 0.862 c 0.765,0 1.244,0.572 0.957,1.338 L 3.345,-5.833 C 3.06,-5.164 2.771,-4.782 2.101,-4.782 H 0 l -19.417,-0.099 c -0.67,0 -1.244,-0.382 -1.338,-1.051 v -19.7 c 0,-0.766 0.572,-1.338 1.338,-1.338 h 1.146 c 0.672,0 1.338,-0.576 1.338,-1.341 v -2.103 c 0,-0.763 -0.666,-1.339 -1.338,-1.339 h -9.753 c -0.765,0 -1.336,0.576 -1.336,1.339 v 2.103 c 0,0.765 0.571,1.341 1.336,1.341 h 1.145 c 0.768,0 1.343,0.572 1.343,1.338 v 54.417 c 0,0.766 -0.575,1.341 -1.343,1.341 h -1.145 c -0.765,0 -1.336,0.667 -1.336,1.433 v 2.007 c 0,0.767 0.571,1.34 1.336,1.34 H 0 c 5.544,0 10.517,-2.2 14.057,-5.738 3.631,-3.632 5.835,-8.607 5.835,-14.059 C 19.892,9.564 17.688,4.59 14.057,1.05 12.43,-0.575 10.517,-2.008 8.413,-2.966 7.935,-3.349 7.745,-4.019 7.935,-4.591 l 9.087,-21.041 c 0.288,-0.766 1.051,-1.338 1.815,-1.338 h 1.055 c 0.762,0 1.337,-0.576 1.337,-1.341" /></g><g
           transform="translate(130.0479,11.5957)"
           id="g68"><path
             id="path70"
             style="fill:#656263;fill-opacity:1;fill-rule:nonzero;stroke:none"
             d="M 0,0 C 0,-0.763 -0.577,-1.339 -1.341,-1.339 H -2.487 -5.167 -7.271 -9.949 -11 c -0.764,0 -1.437,0.576 -1.437,1.339 v 2.008 c 0,0.767 0.673,1.436 1.437,1.436 h 1.051 c 0.766,0 1.339,0.572 1.339,1.338 v 54.417 c 0,0.766 -0.573,1.341 -1.339,1.341 H -11 c -0.764,0 -1.437,0.571 -1.437,1.339 v 2.101 c 0,0.767 0.673,1.34 1.437,1.34 h 9.659 C -0.577,65.32 0,64.747 0,63.98 V 61.879 C 0,61.111 -0.577,60.54 -1.341,60.54 h -1.146 c -0.671,0 -1.341,-0.575 -1.341,-1.341 V 4.782 c 0,-0.766 0.67,-1.338 1.341,-1.338 h 1.146 C -0.577,3.444 0,2.775 0,2.008 Z" /></g><g
           transform="translate(191.9609,75.4814)"
           id="g72"><path
             id="path74"
             style="fill:#656263;fill-opacity:1;fill-rule:nonzero;stroke:none"
             d="m 0,0 v -5.929 c 0,-0.669 -0.572,-1.34 -1.338,-1.34 h -2.107 c -0.67,0 -1.338,0.671 -1.338,1.34 v 1.147 c 0,0.766 -0.573,1.341 -1.336,1.341 H -25.06 c -0.477,-0.194 -0.764,-0.671 -0.764,-1.246 v -54.417 c 0,-0.766 0.576,-1.337 1.342,-1.337 h 1.145 c 0.765,0 1.338,-0.577 1.338,-1.341 v -2.104 c 0,-0.762 -0.573,-1.339 -1.338,-1.339 h -9.754 c -0.671,0 -1.338,0.577 -1.338,1.339 v 2.104 c 0,0.764 0.667,1.341 1.338,1.341 h 1.149 c 0.762,0 1.339,0.571 1.339,1.337 v 54.417 c 0,0.575 -0.292,1.052 -0.764,1.246 h -18.939 c -0.765,0 -1.342,-0.575 -1.342,-1.341 v -1.147 c 0,-0.669 -0.569,-1.34 -1.334,-1.34 h -2.106 c -0.765,0 -1.34,0.671 -1.34,1.34 V 0 c 0,0.765 0.575,1.34 1.34,1.34 h 53.75 C -0.572,1.34 0,0.765 0,0" /></g><g
           transform="translate(205.6152,16.0918)"
           id="g76"><path
             id="path78"
             style="fill:#656263;fill-opacity:1;fill-rule:nonzero;stroke:none"
             d="m 0,0 c -0.476,-0.573 -0.289,-1.052 0.477,-1.052 h 34.24 c 0.766,0 1.34,0.572 1.34,1.338 v 1.053 c 0,0.765 0.572,1.432 1.338,1.432 H 39.5 c 0.762,0 1.338,-0.667 1.338,-1.432 v -5.835 c 0,-0.763 -0.576,-1.339 -1.338,-1.339 H -6.6 c -0.764,0 -1.338,0.576 -1.338,1.339 v 2.103 c 0,0.48 0.193,0.672 0.385,0.864 0.189,0.19 0.477,0.574 0.573,0.574 0,0.094 39.878,56.138 39.878,56.138 0.478,0.572 0.29,1.052 -0.476,1.052 H -1.816 c -0.767,0 -1.34,-0.669 -1.34,-1.338 v -1.149 c 0,-0.764 -0.67,-1.34 -1.34,-1.34 H -6.6 c -0.764,0 -1.338,0.576 -1.338,1.34 v 1.149 4.78 c 0,0.669 0.574,1.339 1.338,1.339 h 46.1 c 0.762,0 1.338,-0.67 1.338,-1.339 v -2.102 c 0,-0.385 -0.095,-0.576 -0.384,-0.864 C 40.358,56.522 0,0 0,0" /></g><g
           transform="translate(281.166,13.0938)"
           id="g80"><path
             id="path82"
             style="fill:#656263;fill-opacity:1;fill-rule:nonzero;stroke:none"
             d="m 0,0 -0.026,-2.727 c -0.003,-0.351 -0.261,-0.608 -0.618,-0.606 l -21.202,0.194 c -0.354,0.004 -0.613,0.266 -0.61,0.618 l 0.008,0.974 c 0.003,0.347 0.267,0.608 0.624,0.603 l 0.527,-0.004 c 0.351,-0.002 0.613,0.258 0.615,0.611 l 0.236,25.032 c 0.002,0.359 -0.261,0.617 -0.613,0.618 l -0.526,0.005 c -0.357,0.005 -0.615,0.312 -0.61,0.665 l 0.007,0.92 c 0.004,0.357 0.267,0.619 0.623,0.614 l 4.493,-0.04 c 0.302,-0.003 0.608,-0.269 0.604,-0.627 l -0.01,-0.92 c -10e-4,-0.35 -0.31,-0.655 -0.615,-0.653 l -0.536,0.006 c -0.351,0.003 -0.615,-0.25 -0.619,-0.612 l -0.229,-25.029 c 0,-0.35 0.259,-0.618 0.608,-0.621 l 15.044,-0.138 c 0.354,-0.003 0.625,0.259 0.625,0.61 l 0.005,0.528 c 0.005,0.353 0.312,0.615 0.618,0.612 L -0.611,0.624 C -0.253,0.62 0.007,0.353 0,0" /></g><g
           transform="translate(314.2256,12.7661)"
           id="g84"><path
             id="path86"
             style="fill:#656263;fill-opacity:1;fill-rule:nonzero;stroke:none"
             d="m 0,0 -0.024,-2.726 c -0.008,-0.351 -0.268,-0.611 -0.627,-0.609 l -21.199,0.196 c -0.347,10e-4 -0.609,0.264 -0.608,0.616 l 0.012,0.975 c 0,0.346 0.27,0.606 0.617,0.606 l 0.526,-0.006 c 0.353,-0.006 0.622,0.256 0.623,0.608 l 0.232,25.031 c 0.001,0.363 -0.261,0.618 -0.615,0.623 l -0.527,0.002 c -0.349,0.007 -0.607,0.313 -0.607,0.667 l 0.008,0.92 c 0.001,0.355 0.273,0.617 0.623,0.612 l 4.482,-0.041 c 0.313,-0.003 0.616,-0.27 0.61,-0.624 l -0.005,-0.921 c -0.003,-0.35 -0.31,-0.654 -0.626,-0.654 l -0.528,0.006 c -0.346,0.004 -0.614,-0.251 -0.614,-0.611 l -0.232,-25.029 c -0.002,-0.351 0.264,-0.618 0.608,-0.62 l 15.046,-0.139 c 0.349,-0.005 0.614,0.258 0.621,0.61 l 0.005,0.53 c 0,0.351 0.306,0.612 0.623,0.609 L -0.615,0.62 C -0.26,0.618 0.004,0.352 0,0" /></g><g
           transform="translate(325.5303,21.2686)"
           id="g88"><path
             id="path90"
             style="fill:#656263;fill-opacity:1;fill-rule:nonzero;stroke:none"
             d="m 0,0 c -0.025,-2.646 1.01,-5.029 2.707,-6.806 1.748,-1.726 4.11,-2.81 6.748,-2.835 1.94,-0.014 3.7,0.499 5.199,1.455 1.513,0.954 2.713,2.303 3.516,3.93 0.175,0.303 0.532,0.429 0.845,0.253 l 0.83,-0.407 c 0.308,-0.129 0.43,-0.529 0.3,-0.84 -0.99,-1.965 -2.458,-3.626 -4.315,-4.798 -1.859,-1.168 -4.017,-1.812 -6.393,-1.788 -3.254,0.03 -6.187,1.382 -8.284,3.503 -2.091,2.131 -3.428,5.271 -3.398,8.521 -0.04,0.4 0.17,8.582 0.129,8.624 0.025,3.257 1.372,6.191 3.508,8.285 2.131,2.089 5.083,3.387 8.341,3.36 2.376,-0.026 4.523,-0.706 6.357,-1.909 1.836,-1.209 3.275,-2.892 4.23,-4.882 0.12,-0.31 -0.009,-0.704 -0.32,-0.829 l -0.833,-0.39 c -0.315,-0.176 -0.673,-0.039 -0.838,0.266 -0.777,1.643 -1.952,3.015 -3.443,4 -1.487,0.981 -3.238,1.521 -5.175,1.541 C 7.073,18.277 4.691,17.243 2.913,15.547 1.181,13.805 0.103,11.433 0.078,8.795 -0.06,8.795 0.024,2.636 0,0" /></g><g
           transform="translate(246.5195,86.7485)"
           id="g92"><path
             id="path94"
             style="fill:#656263;fill-opacity:1;fill-rule:nonzero;stroke:none"
             d="m 0,0 c 0,-0.26 -0.213,-0.473 -0.473,-0.473 h -1.914 c -0.259,0 -0.472,0.213 -0.472,0.473 v 1.929 c 0,0.26 0.213,0.473 0.472,0.473 h 1.914 C -0.213,2.402 0,2.189 0,1.929 Z" /></g><g
           transform="translate(304.334,53.1582)"
           id="g96"><path
             id="path98"
             style="fill:none;stroke:#56a24d;stroke-width:3.02999997;stroke-linecap:butt;stroke-linejoin:miter;stroke-miterlimit:10;stroke-dasharray:none;stroke-opacity:1"
             d="M 0,0 H 35.323" /></g><g
           transform="translate(263.4014,53.1582)"
           id="g100"><path
             id="path102"
             style="fill:none;stroke:#2098b1;stroke-width:3.02999997;stroke-linecap:butt;stroke-linejoin:miter;stroke-miterlimit:10;stroke-dasharray:none;stroke-opacity:1"
             d="M 0,0 H 40.933" /></g><g
           transform="translate(305.3799,127.8691)"
           id="g104"><path
             id="path106"
             style="fill:#2098b1;fill-opacity:1;fill-rule:nonzero;stroke:none"
             d="m 0,0 c 0,-2.373 -1.931,-4.296 -4.314,-4.296 -2.383,0 -4.313,1.923 -4.313,4.296 0,2.374 1.93,4.298 4.313,4.298 C -1.931,4.298 0,2.374 0,0" /></g><g
           transform="translate(341.8418,68.3511)"
           id="g108"><path
             id="path110"
             style="fill:none;stroke:#56a24d;stroke-width:3.02999997;stroke-linecap:butt;stroke-linejoin:miter;stroke-miterlimit:10;stroke-dasharray:none;stroke-opacity:1"
             d="M 0,0 V 59.909 H -24.67" /></g><g
           transform="translate(319.9326,131.6689)"
           id="g112"><path
             id="path114"
             style="fill:#58a33e;fill-opacity:1;fill-rule:nonzero;stroke:none"
             d="m 0,0 -7.944,-3.334 7.933,-3.573 z" /></g><g
           transform="translate(338.4678,70.8667)"
           id="g116"><path
             id="path118"
             style="fill:#58a33e;fill-opacity:1;fill-rule:nonzero;stroke:none"
             d="M 0,0 3.47,-7.638 7.187,-0.01 Z" /></g><g
           transform="translate(260.0283,68.3511)"
           id="g120"><path
             id="path122"
             style="fill:none;stroke:#2098b1;stroke-width:3.02999997;stroke-linecap:butt;stroke-linejoin:miter;stroke-miterlimit:10;stroke-dasharray:none;stroke-opacity:1"
             d="M 0,0 V 59.909 H 26.669" /></g><g
           transform="translate(282.9375,131.6689)"
           id="g124"><path
             id="path126"
             style="fill:#2098b1;fill-opacity:1;fill-rule:nonzero;stroke:none"
             d="M 0,0 7.943,-3.334 0.011,-6.907 Z" /></g><g
           transform="translate(263.4023,70.8667)"
           id="g128"><path
             id="path130"
             style="fill:#2098b1;fill-opacity:1;fill-rule:nonzero;stroke:none"
             d="M 0,0 -3.47,-7.638 -7.187,-0.01 Z" /></g><g
           transform="translate(286.9805,93.6006)"
           id="g132"><path
             id="path134"
             style="fill:#2098b1;fill-opacity:1;fill-rule:nonzero;stroke:none"
             d="m 0,0 c 0,-2.372 -1.931,-4.296 -4.314,-4.296 -2.383,0 -4.313,1.924 -4.313,4.296 0,2.374 1.93,4.298 4.313,4.298 C -1.931,4.298 0,2.374 0,0" /></g><g
           transform="translate(324.0459,93.6006)"
           id="g136"><path
             id="path138"
             style="fill:#58a33e;fill-opacity:1;fill-rule:nonzero;stroke:none"
             d="m 0,0 c 0,-2.372 -1.931,-4.296 -4.314,-4.296 -2.383,0 -4.313,1.924 -4.313,4.296 0,2.374 1.93,4.298 4.313,4.298 C -1.931,4.298 0,2.374 0,0" /></g><g
           transform="translate(266.5479,53.3691)"
           id="g140"><path
             id="path142"
             style="fill:#2098b1;fill-opacity:1;fill-rule:nonzero;stroke:none"
             d="m 0,0 c 0,-2.373 -1.931,-4.296 -4.314,-4.296 -2.383,0 -4.313,1.923 -4.313,4.296 0,2.374 1.93,4.298 4.313,4.298 C -1.931,4.298 0,2.374 0,0" /></g><g
           transform="translate(307.2129,53.3691)"
           id="g144"><path
             id="path146"
             style="fill:#2098b1;fill-opacity:1;fill-rule:nonzero;stroke:none"
             d="m 0,0 c 0,-2.373 -1.931,-4.296 -4.314,-4.296 -2.383,0 -4.313,1.923 -4.313,4.296 0,2.374 1.93,4.298 4.313,4.298 C -1.931,4.298 0,2.374 0,0" /></g><g
           transform="translate(344.3799,53.3691)"
           id="g148"><path
             id="path150"
             style="fill:#58a33e;fill-opacity:1;fill-rule:nonzero;stroke:none"
             d="m 0,0 c 0,-2.373 -1.931,-4.296 -4.314,-4.296 -2.383,0 -4.313,1.923 -4.313,4.296 0,2.374 1.93,4.298 4.313,4.298 C -1.931,4.298 0,2.374 0,0" /></g></g></g></g></svg>