<?xml version="1.0" standalone="no"?>
<!DOCTYPE svg PUBLIC "-//W3C//DTD SVG 20010904//EN"
 "http://www.w3.org/TR/2001/REC-SVG-20010904/DTD/svg10.dtd">
<svg version="1.0" xmlns="http://www.w3.org/2000/svg"
 width="460.000000pt" height="460.000000pt" viewBox="0 0 460.000000 460.000000"
 preserveAspectRatio="xMidYMid meet">
<metadata>
Created by potrace 1.11, written by Peter Selinger 2001-2013
</metadata>
<g transform="translate(0.000000,460.000000) scale(0.100000,-0.100000)"
fill="#000000" stroke="none">
<path d="M2189 4367 c-102 -54 -148 -206 -89 -297 7 -11 -5 -41 -42 -110 -28
-52 -81 -153 -119 -225 -37 -71 -176 -335 -308 -585 l-240 -454 -51 -12 c-146
-33 -222 -181 -160 -309 l20 -41 -435 -825 c-346 -656 -440 -825 -458 -830
-100 -27 -167 -115 -167 -220 0 -54 48 -139 98 -174 35 -24 55 -30 110 -33 82
-4 141 23 187 86 l30 41 804 0 803 1 41 -46 c23 -26 59 -55 82 -65 51 -24 129
-24 180 0 39 17 105 81 105 101 0 6 265 10 723 10 l723 0 38 -46 c135 -162
386 -74 386 134 0 93 -58 177 -142 204 -39 13 -47 21 -88 99 -25 46 -66 122
-91 169 -26 47 -147 272 -269 500 -122 228 -279 520 -347 648 l-125 232 22 38
c14 23 24 60 27 97 9 117 -72 215 -195 232 l-54 8 -89 165 c-50 91 -115 212
-146 270 -31 58 -152 285 -270 504 l-214 399 20 48 c51 117 2 246 -111 293
-56 24 -136 20 -189 -7z m187 -494 c53 -99 78 -146 189 -353 43 -80 90 -167
105 -195 15 -27 63 -117 107 -200 84 -156 130 -242 220 -409 l53 -99 -22 -46
c-30 -62 -30 -141 -1 -202 l23 -45 -316 -785 c-174 -431 -321 -799 -327 -817
-23 -70 13 -133 -547 973 -318 629 -318 630 -300 653 48 59 47 170 -3 244
l-24 34 119 224 c122 231 135 255 403 765 86 165 164 310 171 323 12 17 24 22
58 22 l44 0 48 -87z m-562 -2439 l411 -810 -25 -42 -25 -41 -802 -1 -802 0
-12 22 c-6 13 -25 37 -41 54 l-29 31 237 449 c130 247 265 503 300 569 35 66
119 225 186 353 l123 233 34 -3 34 -3 411 -811z m1466 754 c42 -79 247 -462
710 -1322 91 -170 110 -213 101 -225 -6 -9 -24 -35 -39 -58 l-27 -42 -715 0
-715 0 -28 45 -27 46 79 196 c632 1573 568 1422 601 1422 23 0 32 -9 60 -62z"/>
<path d="M1390 4320 l0 -50 -610 0 -610 0 0 -1465 0 -1465 -55 0 c-30 0 -55
-3 -55 -7 0 -18 184 -382 190 -376 9 10 170 368 170 376 0 4 -20 7 -45 7 l-45
0 0 1385 0 1385 530 0 530 0 0 -46 c0 -42 2 -45 22 -39 62 20 378 169 371 176
-4 4 -80 38 -168 75 -88 37 -175 73 -192 81 l-33 13 0 -50z"/>
<path d="M3033 4286 c-106 -45 -195 -84 -197 -87 -6 -5 375 -179 392 -179 8 0
12 17 12 45 l0 45 500 0 500 0 0 -1385 0 -1385 -45 0 c-25 0 -45 -1 -45 -3 0
-12 170 -372 176 -374 8 -2 175 330 182 363 3 11 -9 14 -52 14 l-56 0 0 1465
0 1465 -580 0 -580 0 0 50 c0 28 -3 50 -7 49 -5 0 -95 -38 -200 -83z"/>
</g>
</svg>
